<?xml version="1.0" encoding="UTF-8"?>
<svg xmlns="http://www.w3.org/2000/svg" xmlns:xlink="http://www.w3.org/1999/xlink" width="31px" height="31px" viewBox="0 0 31 31" version="1.1">
<g id="surface1">
<path style=" stroke:none;fill-rule:nonzero;fill:rgb(0%,0%,0%);fill-opacity:1;" d="M 1.878906 0.308594 C 1.375 -0.1875 0.644531 -0.0742188 0.246094 0.558594 C -0.148438 1.1875 -0.0585938 2.101562 0.445312 2.597656 L 29.121094 30.691406 C 29.625 31.1875 30.355469 31.074219 30.753906 30.441406 C 31.148438 29.8125 31.058594 28.898438 30.554688 28.402344 L 26.28125 24.21875 C 26.414062 23.746094 26.34375 23.21875 26.09375 22.828125 L 25.371094 21.699219 C 24 19.550781 23.25 16.878906 23.25 14.132812 L 23.25 12.109375 C 23.25 7.519531 20.5625 3.71875 17.050781 3.019531 L 17.050781 1.9375 C 17.050781 0.867188 16.355469 0 15.5 0 C 14.644531 0 13.949219 0.867188 13.949219 1.9375 L 13.949219 3.019531 C 11.824219 3.445312 10.003906 5 8.894531 7.179688 Z M 10.738281 8.984375 C 11.605469 7.089844 13.238281 5.8125 15.113281 5.8125 L 15.886719 5.8125 C 18.667969 5.8125 20.925781 8.632812 20.925781 12.109375 L 20.925781 14.132812 C 20.925781 16.113281 21.234375 18.054688 21.832031 19.851562 Z M 7.75 14.132812 C 7.75 16.878906 7 19.550781 5.628906 21.695312 L 4.90625 22.828125 C 4.625 23.261719 4.574219 23.863281 4.765625 24.363281 C 4.960938 24.867188 5.367188 25.1875 5.8125 25.1875 L 19.675781 25.1875 L 16.726562 22.28125 L 8.152344 22.28125 C 9.179688 20.296875 9.816406 18.023438 10.011719 15.675781 L 7.75 13.449219 L 7.75 14.136719 Z M 18.601562 27.125 L 12.398438 27.125 C 12.398438 28.15625 12.722656 29.140625 13.304688 29.867188 C 13.886719 30.59375 14.675781 31 15.5 31 C 16.324219 31 17.113281 30.59375 17.695312 29.867188 C 18.277344 29.140625 18.601562 28.15625 18.601562 27.125 Z M 18.601562 27.125 "/>
</g>
</svg>
