<?xml version="1.0" encoding="UTF-8"?>
<svg xmlns="http://www.w3.org/2000/svg" xmlns:xlink="http://www.w3.org/1999/xlink" width="31px" height="31px" viewBox="0 0 31 31" version="1.1">
<g id="surface1">
<path style=" stroke:none;fill-rule:nonzero;fill:rgb(0%,0%,0%);fill-opacity:1;" d="M 15.5 0 C 14.273438 0 13.285156 0.867188 13.285156 1.9375 L 13.285156 3.019531 C 8.269531 3.71875 4.429688 7.519531 4.429688 12.109375 L 4.429688 14.132812 C 4.429688 16.878906 3.355469 19.550781 1.398438 21.695312 L 0.367188 22.828125 C -0.0351562 23.261719 -0.109375 23.863281 0.167969 24.363281 C 0.441406 24.867188 1.023438 25.1875 1.660156 25.1875 L 29.339844 25.1875 C 29.976562 25.1875 30.558594 24.867188 30.832031 24.363281 C 31.109375 23.863281 31.035156 23.261719 30.632812 22.828125 L 29.601562 21.699219 C 27.644531 19.550781 26.570312 16.878906 26.570312 14.132812 L 26.570312 12.109375 C 26.570312 7.519531 22.730469 3.71875 17.714844 3.019531 L 17.714844 1.9375 C 17.714844 0.867188 16.726562 0 15.5 0 Z M 15.5 5.8125 L 16.054688 5.8125 C 20.027344 5.8125 23.25 8.632812 23.25 12.109375 L 23.25 14.132812 C 23.25 17.03125 24.210938 19.859375 25.996094 22.28125 L 5.003906 22.28125 C 6.789062 19.859375 7.75 17.03125 7.75 14.132812 L 7.75 12.109375 C 7.75 8.632812 10.972656 5.8125 14.945312 5.8125 Z M 19.929688 27.125 L 11.070312 27.125 C 11.070312 28.15625 11.535156 29.140625 12.367188 29.867188 C 13.195312 30.59375 14.324219 31 15.5 31 C 16.675781 31 17.804688 30.59375 18.632812 29.867188 C 19.464844 29.140625 19.929688 28.15625 19.929688 27.125 Z M 19.929688 27.125 "/>
</g>
</svg>
