<?xml version="1.0" encoding="UTF-8"?>
<svg xmlns="http://www.w3.org/2000/svg" xmlns:xlink="http://www.w3.org/1999/xlink" width="31px" height="31px" viewBox="0 0 31 31" version="1.1">
<g id="surface1">
<path style=" stroke:none;fill-rule:nonzero;fill:rgb(0%,0%,0%);fill-opacity:1;" d="M 13.347656 0 L 11.195312 0 C 9.769531 0 8.609375 1.300781 8.609375 2.90625 L 8.609375 9.6875 C 8.609375 11.824219 10.15625 13.5625 12.054688 13.5625 L 18.945312 13.5625 C 20.84375 13.5625 22.390625 11.824219 22.390625 9.6875 L 22.390625 2.90625 C 22.390625 1.300781 21.230469 0 19.804688 0 L 17.652344 0 L 17.652344 4.84375 C 17.652344 5.375 17.265625 5.8125 16.792969 5.8125 L 14.207031 5.8125 C 13.734375 5.8125 13.347656 5.375 13.347656 4.84375 Z M 3.445312 15.5 C 1.542969 15.5 0 17.238281 0 19.375 L 0 27.125 C 0 29.261719 1.542969 31 3.445312 31 L 12.054688 31 C 13.957031 31 15.5 29.261719 15.5 27.125 L 15.5 19.375 C 15.5 17.238281 13.957031 15.5 12.054688 15.5 L 9.902344 15.5 L 9.902344 20.34375 C 9.902344 20.875 9.515625 21.3125 9.042969 21.3125 L 6.457031 21.3125 C 5.984375 21.3125 5.597656 20.875 5.597656 20.34375 L 5.597656 15.5 Z M 18.945312 31 L 27.554688 31 C 29.457031 31 31 29.261719 31 27.125 L 31 19.375 C 31 17.238281 29.457031 15.5 27.554688 15.5 L 25.402344 15.5 L 25.402344 20.34375 C 25.402344 20.875 25.015625 21.3125 24.542969 21.3125 L 21.957031 21.3125 C 21.484375 21.3125 21.097656 20.875 21.097656 20.34375 L 21.097656 15.5 L 18.945312 15.5 C 18.136719 15.5 17.394531 15.808594 16.808594 16.335938 C 17.070312 16.964844 17.222656 17.667969 17.222656 18.40625 L 17.222656 28.09375 C 17.222656 28.832031 17.070312 29.535156 16.808594 30.164062 C 17.394531 30.691406 18.136719 31 18.945312 31 Z M 18.945312 31 "/>
</g>
</svg>
