<?xml version="1.0" encoding="UTF-8"?>
<svg xmlns="http://www.w3.org/2000/svg" xmlns:xlink="http://www.w3.org/1999/xlink" width="31px" height="31px" viewBox="0 0 31 31" version="1.1">
<g id="surface1">
<path style=" stroke:none;fill-rule:nonzero;fill:rgb(0%,0%,0%);fill-opacity:1;" d="M 10.519531 1.453125 C 10.519531 0.648438 9.777344 0 8.855469 0 C 7.9375 0 7.195312 0.648438 7.195312 1.453125 L 7.195312 3.875 L 4.429688 3.875 C 1.984375 3.875 0 5.613281 0 7.75 L 0 27.125 C 0 29.261719 1.984375 31 4.429688 31 L 26.570312 31 C 29.015625 31 31 29.261719 31 27.125 L 31 7.75 C 31 5.613281 29.015625 3.875 26.570312 3.875 L 23.804688 3.875 L 23.804688 1.453125 C 23.804688 0.648438 23.0625 0 22.144531 0 C 21.222656 0 20.480469 0.648438 20.480469 1.453125 L 20.480469 3.875 L 10.519531 3.875 Z M 3.320312 11.625 L 27.679688 11.625 L 27.679688 27.125 C 27.679688 27.65625 27.179688 28.09375 26.570312 28.09375 L 4.429688 28.09375 C 3.820312 28.09375 3.320312 27.65625 3.320312 27.125 Z M 3.320312 11.625 "/>
</g>
</svg>
