<?xml version="1.0" encoding="UTF-8"?>
<svg xmlns="http://www.w3.org/2000/svg" xmlns:xlink="http://www.w3.org/1999/xlink" width="31px" height="31px" viewBox="0 0 31 31" version="1.1">
<g id="surface1">
<path style=" stroke:none;fill-rule:nonzero;fill:rgb(0%,0%,0%);fill-opacity:1;" d="M 16.628906 6.417969 C 17.242188 5.992188 17.652344 5.226562 17.652344 4.359375 C 17.652344 3.019531 16.6875 1.9375 15.5 1.9375 C 14.3125 1.9375 13.347656 3.019531 13.347656 4.359375 C 13.347656 5.230469 13.757812 5.992188 14.371094 6.417969 L 11.285156 13.355469 C 10.796875 14.457031 9.527344 14.773438 8.671875 14.003906 L 3.875 9.6875 C 4.144531 9.28125 4.304688 8.78125 4.304688 8.234375 C 4.304688 6.894531 3.34375 5.8125 2.152344 5.8125 C 0.964844 5.8125 0 6.894531 0 8.234375 C 0 9.574219 0.964844 10.65625 2.152344 10.65625 C 2.164062 10.65625 2.179688 10.65625 2.191406 10.65625 L 4.648438 25.878906 C 4.945312 27.71875 6.371094 29.0625 8.039062 29.0625 L 22.960938 29.0625 C 24.621094 29.0625 26.046875 27.722656 26.351562 25.878906 L 28.808594 10.65625 C 28.820312 10.65625 28.835938 10.65625 28.847656 10.65625 C 30.035156 10.65625 31 9.574219 31 8.234375 C 31 6.894531 30.035156 5.8125 28.847656 5.8125 C 27.65625 5.8125 26.695312 6.894531 26.695312 8.234375 C 26.695312 8.78125 26.855469 9.28125 27.125 9.6875 L 22.328125 14.003906 C 21.472656 14.773438 20.203125 14.457031 19.714844 13.355469 Z M 16.628906 6.417969 "/>
</g>
</svg>
