<?xml version="1.0" encoding="UTF-8"?>
<svg xmlns="http://www.w3.org/2000/svg" xmlns:xlink="http://www.w3.org/1999/xlink" width="31px" height="31px" viewBox="0 0 31 31" version="1.1">
<g id="surface1">
<path style=" stroke:none;fill-rule:nonzero;fill:rgb(0%,0%,0%);fill-opacity:1;" d="M 24.117188 0.207031 C 23.160156 -0.273438 21.996094 0.113281 21.519531 1.070312 C 21.039062 2.027344 21.425781 3.183594 22.378906 3.667969 L 22.402344 3.679688 C 22.425781 3.695312 22.46875 3.71875 22.53125 3.753906 C 22.652344 3.828125 22.832031 3.9375 23.054688 4.09375 C 23.511719 4.40625 24.121094 4.890625 24.734375 5.558594 C 25.945312 6.867188 27.125 8.839844 27.125 11.625 C 27.125 12.695312 27.992188 13.5625 29.0625 13.5625 C 30.132812 13.5625 31 12.695312 31 11.625 C 31 7.628906 29.273438 4.757812 27.578125 2.925781 C 26.738281 2.011719 25.894531 1.34375 25.265625 0.90625 C 24.945312 0.683594 24.679688 0.519531 24.480469 0.40625 C 24.382812 0.34375 24.296875 0.300781 24.238281 0.273438 C 24.207031 0.253906 24.183594 0.242188 24.164062 0.230469 L 24.140625 0.21875 L 24.128906 0.210938 L 24.121094 0.210938 C 24.121094 0.210938 24.121094 0.210938 23.257812 1.945312 Z M 7.792969 13.773438 C 8.167969 10.382812 11.042969 7.75 14.53125 7.75 C 18.277344 7.75 21.3125 10.785156 21.3125 14.53125 C 21.3125 16.304688 20.632812 17.914062 19.519531 19.125 C 18.492188 20.242188 17.4375 21.859375 17.4375 23.847656 L 17.4375 24.21875 C 17.4375 25.824219 16.136719 27.125 14.53125 27.125 C 13.460938 27.125 12.59375 27.992188 12.59375 29.0625 C 12.59375 30.132812 13.460938 31 14.53125 31 C 18.277344 31 21.3125 27.964844 21.3125 24.21875 L 21.3125 23.847656 C 21.3125 23.257812 21.640625 22.535156 22.367188 21.75 C 24.117188 19.851562 25.1875 17.316406 25.1875 14.53125 C 25.1875 8.644531 20.417969 3.875 14.53125 3.875 C 9.046875 3.875 4.527344 8.023438 3.941406 13.351562 C 3.828125 14.417969 4.589844 15.371094 5.65625 15.488281 C 6.71875 15.601562 7.675781 14.839844 7.792969 13.773438 Z M 1.9375 31 C 3.007812 31 3.875 30.132812 3.875 29.0625 C 3.875 27.992188 3.007812 27.125 1.9375 27.125 C 0.867188 27.125 0 27.992188 0 29.0625 C 0 30.132812 0.867188 31 1.9375 31 Z M 11.625 21.3125 C 11.625 20.242188 10.757812 19.375 9.6875 19.375 C 8.617188 19.375 7.75 20.242188 7.75 21.3125 C 7.75 22.382812 8.617188 23.25 9.6875 23.25 C 10.757812 23.25 11.625 22.382812 11.625 21.3125 Z M 2.507812 21.882812 C 1.75 22.636719 1.75 23.867188 2.507812 24.625 L 6.382812 28.5 C 7.136719 29.257812 8.367188 29.257812 9.125 28.5 C 9.882812 27.742188 9.882812 26.511719 9.125 25.757812 L 5.25 21.882812 C 4.492188 21.125 3.261719 21.125 2.507812 21.882812 Z M 12.59375 14.53125 C 12.59375 13.460938 13.460938 12.59375 14.53125 12.59375 C 15.601562 12.59375 16.46875 13.460938 16.46875 14.53125 C 16.46875 15.335938 17.117188 15.984375 17.921875 15.984375 C 18.726562 15.984375 19.375 15.335938 19.375 14.53125 C 19.375 11.855469 17.207031 9.6875 14.53125 9.6875 C 11.855469 9.6875 9.6875 11.855469 9.6875 14.53125 C 9.6875 15.335938 10.335938 15.984375 11.140625 15.984375 C 11.945312 15.984375 12.59375 15.335938 12.59375 14.53125 Z M 12.59375 14.53125 "/>
</g>
</svg>
