<?xml version="1.0" encoding="UTF-8"?>
<svg xmlns="http://www.w3.org/2000/svg" xmlns:xlink="http://www.w3.org/1999/xlink" width="31px" height="31px" viewBox="0 0 31 31" version="1.1">
<g id="surface1">
<path style=" stroke:none;fill-rule:nonzero;fill:rgb(0%,0%,0%);fill-opacity:1;" d="M 28.09375 15.5 C 28.09375 8.542969 22.457031 2.90625 15.5 2.90625 C 8.542969 2.90625 2.90625 8.542969 2.90625 15.5 C 2.90625 22.457031 8.542969 28.09375 15.5 28.09375 C 22.457031 28.09375 28.09375 22.457031 28.09375 15.5 Z M 0 15.5 C 0 6.941406 6.941406 0 15.5 0 C 24.058594 0 31 6.941406 31 15.5 C 31 24.058594 24.058594 31 15.5 31 C 6.941406 31 0 24.058594 0 15.5 Z M 21.160156 18.671875 C 22.292969 18.40625 23.335938 19.398438 22.703125 20.375 C 21.214844 22.679688 18.546875 24.21875 15.492188 24.21875 C 12.441406 24.21875 9.773438 22.679688 8.28125 20.375 C 7.652344 19.398438 8.695312 18.40625 9.828125 18.671875 C 11.578125 19.085938 13.488281 19.308594 15.492188 19.308594 C 17.5 19.308594 19.410156 19.085938 21.160156 18.671875 Z M 8.742188 12.59375 C 8.742188 11.523438 9.609375 10.65625 10.679688 10.65625 C 11.75 10.65625 12.617188 11.523438 12.617188 12.59375 C 12.617188 13.664062 11.75 14.53125 10.679688 14.53125 C 9.609375 14.53125 8.742188 13.664062 8.742188 12.59375 Z M 20.367188 10.65625 C 21.4375 10.65625 22.304688 11.523438 22.304688 12.59375 C 22.304688 13.664062 21.4375 14.53125 20.367188 14.53125 C 19.296875 14.53125 18.429688 13.664062 18.429688 12.59375 C 18.429688 11.523438 19.296875 10.65625 20.367188 10.65625 Z M 20.367188 10.65625 "/>
</g>
</svg>
