<?xml version="1.0" encoding="UTF-8"?>
<svg xmlns="http://www.w3.org/2000/svg" xmlns:xlink="http://www.w3.org/1999/xlink" width="31px" height="31px" viewBox="0 0 31 31" version="1.1">
<g id="surface1">
<path style=" stroke:none;fill-rule:nonzero;fill:rgb(0%,0%,0%);fill-opacity:1;" d="M 5.167969 28.09375 C 4.457031 28.09375 3.875 27.65625 3.875 27.125 L 3.875 3.875 C 3.875 3.34375 4.457031 2.90625 5.167969 2.90625 L 18.082031 2.90625 L 18.082031 7.75 C 18.082031 8.820312 19.238281 9.6875 20.667969 9.6875 L 27.125 9.6875 L 27.125 27.125 C 27.125 27.65625 26.542969 28.09375 25.832031 28.09375 Z M 5.167969 0 C 2.316406 0 0 1.738281 0 3.875 L 0 27.125 C 0 29.261719 2.316406 31 5.167969 31 L 25.832031 31 C 28.683594 31 31 29.261719 31 27.125 L 31 9.355469 C 31 8.324219 30.460938 7.339844 29.492188 6.613281 L 22.175781 1.132812 C 21.207031 0.40625 19.898438 0 18.527344 0 Z M 9.6875 15.5 C 8.613281 15.5 7.75 16.148438 7.75 16.953125 C 7.75 17.757812 8.613281 18.40625 9.6875 18.40625 L 21.3125 18.40625 C 22.386719 18.40625 23.25 17.757812 23.25 16.953125 C 23.25 16.148438 22.386719 15.5 21.3125 15.5 Z M 9.6875 21.3125 C 8.613281 21.3125 7.75 21.960938 7.75 22.765625 C 7.75 23.570312 8.613281 24.21875 9.6875 24.21875 L 21.3125 24.21875 C 22.386719 24.21875 23.25 23.570312 23.25 22.765625 C 23.25 21.960938 22.386719 21.3125 21.3125 21.3125 Z M 9.6875 21.3125 "/>
</g>
</svg>
