<?xml version="1.0" encoding="UTF-8"?>
<svg xmlns="http://www.w3.org/2000/svg" xmlns:xlink="http://www.w3.org/1999/xlink" width="31px" height="31px" viewBox="0 0 31 31" version="1.1">
<g id="surface1">
<path style=" stroke:none;fill-rule:nonzero;fill:rgb(0%,0%,0%);fill-opacity:1;" d="M 12.398438 1.808594 L 13.691406 0.519531 C 14.015625 0.195312 14.53125 0 15.070312 0 C 16.015625 0 16.792969 0.582031 16.792969 1.289062 L 16.792969 2.632812 C 16.792969 3.425781 17.226562 4.191406 17.996094 4.734375 L 24.832031 9.625 C 28.773438 12.449219 31 16.359375 31 20.445312 C 31 26.277344 24.703125 31 16.929688 31 L 15.5 31 C 6.941406 31 0 25.792969 0 19.375 L 0 19.144531 C 0 16.191406 1.566406 13.355469 4.351562 11.269531 L 4.632812 11.054688 C 4.972656 10.800781 5.441406 10.65625 5.925781 10.65625 C 6.933594 10.65625 7.75 11.269531 7.75 12.023438 L 7.75 17.4375 C 7.75 19.574219 10.066406 21.3125 12.917969 21.3125 C 15.765625 21.3125 18.082031 19.574219 18.082031 17.4375 L 18.082031 17.203125 C 18.082031 16.113281 17.503906 15.0625 16.476562 14.296875 L 13.359375 11.957031 C 11.421875 10.503906 10.332031 8.523438 10.332031 6.464844 C 10.332031 4.789062 11.058594 3.148438 12.398438 1.808594 Z M 12.398438 1.808594 "/>
</g>
</svg>
