<?xml version="1.0" encoding="UTF-8"?>
<svg xmlns="http://www.w3.org/2000/svg" xmlns:xlink="http://www.w3.org/1999/xlink" width="31px" height="31px" viewBox="0 0 31 31" version="1.1">
<g id="surface1">
<path style=" stroke:none;fill-rule:nonzero;fill:rgb(0%,0%,0%);fill-opacity:1;" d="M 29.175781 10.085938 C 29.371094 10.613281 29.207031 11.203125 28.789062 11.578125 L 26.917969 13.277344 C 26.453125 13.707031 26.230469 14.335938 26.257812 14.96875 C 26.265625 15.144531 26.269531 15.320312 26.269531 15.5 C 26.269531 15.679688 26.265625 15.855469 26.257812 16.03125 C 26.230469 16.667969 26.445312 17.296875 26.917969 17.722656 L 28.789062 19.421875 C 29.207031 19.796875 29.371094 20.386719 29.175781 20.914062 C 28.910156 21.632812 28.589844 22.324219 28.222656 22.988281 L 27.9375 23.480469 C 27.535156 24.144531 27.089844 24.777344 26.597656 25.371094 C 26.242188 25.804688 25.648438 25.949219 25.113281 25.78125 L 22.710938 25.019531 C 22.105469 24.824219 21.453125 24.953125 20.914062 25.296875 C 20.617188 25.484375 20.3125 25.664062 20 25.824219 C 19.433594 26.113281 19 26.621094 18.859375 27.238281 L 18.320312 29.703125 C 18.199219 30.253906 17.777344 30.691406 17.21875 30.78125 C 16.382812 30.921875 15.523438 30.992188 14.644531 30.992188 C 13.769531 30.992188 12.910156 30.921875 12.074219 30.78125 C 11.515625 30.691406 11.09375 30.253906 10.972656 29.703125 L 10.433594 27.238281 C 10.300781 26.621094 9.855469 26.113281 9.292969 25.824219 C 8.980469 25.660156 8.675781 25.484375 8.378906 25.296875 C 7.847656 24.953125 7.1875 24.824219 6.582031 25.019531 L 4.183594 25.785156 C 3.652344 25.957031 3.058594 25.804688 2.699219 25.375 C 2.210938 24.78125 1.761719 24.152344 1.363281 23.484375 L 1.078125 22.996094 C 0.707031 22.328125 0.386719 21.640625 0.121094 20.917969 C -0.0742188 20.390625 0.0898438 19.804688 0.507812 19.429688 L 2.378906 17.726562 C 2.84375 17.296875 3.070312 16.667969 3.039062 16.039062 C 3.035156 15.863281 3.027344 15.6875 3.027344 15.507812 C 3.027344 15.324219 3.035156 15.148438 3.039062 14.972656 C 3.070312 14.335938 2.851562 13.707031 2.378906 13.285156 L 0.507812 11.578125 C 0.0898438 11.203125 -0.0742188 10.613281 0.121094 10.085938 C 0.386719 9.367188 0.707031 8.675781 1.078125 8.011719 L 1.363281 7.519531 C 1.761719 6.855469 2.210938 6.222656 2.699219 5.632812 C 3.058594 5.195312 3.652344 5.050781 4.183594 5.21875 L 6.585938 5.980469 C 7.191406 6.175781 7.847656 6.046875 8.386719 5.703125 C 8.683594 5.515625 8.984375 5.335938 9.300781 5.175781 C 9.863281 4.886719 10.300781 4.378906 10.4375 3.761719 L 10.976562 1.296875 C 11.097656 0.746094 11.523438 0.308594 12.078125 0.21875 C 12.914062 0.0742188 13.773438 0 14.652344 0 C 15.53125 0 16.390625 0.0742188 17.226562 0.210938 C 17.78125 0.304688 18.207031 0.738281 18.328125 1.289062 L 18.867188 3.753906 C 19 4.371094 19.433594 4.878906 20.003906 5.171875 C 20.320312 5.335938 20.621094 5.507812 20.917969 5.699219 C 21.453125 6.042969 22.113281 6.164062 22.71875 5.976562 L 25.121094 5.214844 C 25.652344 5.042969 26.246094 5.195312 26.605469 5.625 C 27.09375 6.21875 27.542969 6.847656 27.941406 7.515625 L 28.226562 8.003906 C 28.597656 8.671875 28.917969 9.359375 29.183594 10.082031 Z M 14.652344 20.34375 C 17.328125 20.34375 19.496094 18.175781 19.496094 15.5 C 19.496094 12.824219 17.328125 10.65625 14.652344 10.65625 C 11.976562 10.65625 9.808594 12.824219 9.808594 15.5 C 9.808594 18.175781 11.976562 20.34375 14.652344 20.34375 Z M 14.652344 20.34375 "/>
</g>
</svg>
