<?xml version="1.0" encoding="UTF-8"?>
<svg xmlns="http://www.w3.org/2000/svg" xmlns:xlink="http://www.w3.org/1999/xlink" width="31px" height="31px" viewBox="0 0 31 31" version="1.1">
<g id="surface1">
<path style=" stroke:none;fill-rule:nonzero;fill:rgb(0%,0%,0%);fill-opacity:1;" d="M 15.5 2.90625 C 8.542969 2.90625 2.90625 8.542969 2.90625 15.5 L 2.90625 17.921875 C 2.90625 18.726562 2.257812 19.375 1.453125 19.375 C 0.648438 19.375 0 18.726562 0 17.921875 L 0 15.5 C 0 6.9375 6.9375 0 15.5 0 C 24.0625 0 31 6.9375 31 15.5 L 31 24.226562 C 31 27.167969 28.613281 29.554688 25.664062 29.554688 L 18.988281 29.546875 C 18.484375 30.414062 17.546875 31 16.46875 31 L 14.53125 31 C 12.925781 31 11.625 29.699219 11.625 28.09375 C 11.625 26.488281 12.925781 25.1875 14.53125 25.1875 L 16.46875 25.1875 C 17.546875 25.1875 18.484375 25.773438 18.988281 26.640625 L 25.671875 26.648438 C 27.011719 26.648438 28.09375 25.5625 28.09375 24.226562 L 28.09375 15.5 C 28.09375 8.542969 22.457031 2.90625 15.5 2.90625 Z M 8.71875 12.59375 L 9.6875 12.59375 C 10.757812 12.59375 11.625 13.460938 11.625 14.53125 L 11.625 21.3125 C 11.625 22.382812 10.757812 23.25 9.6875 23.25 L 8.71875 23.25 C 6.582031 23.25 4.84375 21.511719 4.84375 19.375 L 4.84375 16.46875 C 4.84375 14.332031 6.582031 12.59375 8.71875 12.59375 Z M 22.28125 12.59375 C 24.417969 12.59375 26.15625 14.332031 26.15625 16.46875 L 26.15625 19.375 C 26.15625 21.511719 24.417969 23.25 22.28125 23.25 L 21.3125 23.25 C 20.242188 23.25 19.375 22.382812 19.375 21.3125 L 19.375 14.53125 C 19.375 13.460938 20.242188 12.59375 21.3125 12.59375 Z M 22.28125 12.59375 "/>
</g>
</svg>
