<?xml version="1.0" encoding="UTF-8"?>
<svg xmlns="http://www.w3.org/2000/svg" xmlns:xlink="http://www.w3.org/1999/xlink" width="31px" height="31px" viewBox="0 0 31 31" version="1.1">
<g id="surface1">
<path style=" stroke:none;fill-rule:nonzero;fill:rgb(0%,0%,0%);fill-opacity:1;" d="M 2.421875 2.90625 C 1.617188 2.90625 0.96875 3.554688 0.96875 4.359375 L 0.96875 7.265625 C 0.96875 8.070312 1.617188 8.71875 2.421875 8.71875 L 5.328125 8.71875 C 6.132812 8.71875 6.78125 8.070312 6.78125 7.265625 L 6.78125 4.359375 C 6.78125 3.554688 6.132812 2.90625 5.328125 2.90625 Z M 11.625 3.875 C 10.554688 3.875 9.6875 4.742188 9.6875 5.8125 C 9.6875 6.882812 10.554688 7.75 11.625 7.75 L 29.0625 7.75 C 30.132812 7.75 31 6.882812 31 5.8125 C 31 4.742188 30.132812 3.875 29.0625 3.875 Z M 11.625 13.5625 C 10.554688 13.5625 9.6875 14.429688 9.6875 15.5 C 9.6875 16.570312 10.554688 17.4375 11.625 17.4375 L 29.0625 17.4375 C 30.132812 17.4375 31 16.570312 31 15.5 C 31 14.429688 30.132812 13.5625 29.0625 13.5625 Z M 11.625 23.25 C 10.554688 23.25 9.6875 24.117188 9.6875 25.1875 C 9.6875 26.257812 10.554688 27.125 11.625 27.125 L 29.0625 27.125 C 30.132812 27.125 31 26.257812 31 25.1875 C 31 24.117188 30.132812 23.25 29.0625 23.25 Z M 0.96875 14.046875 L 0.96875 16.953125 C 0.96875 17.757812 1.617188 18.40625 2.421875 18.40625 L 5.328125 18.40625 C 6.132812 18.40625 6.78125 17.757812 6.78125 16.953125 L 6.78125 14.046875 C 6.78125 13.242188 6.132812 12.59375 5.328125 12.59375 L 2.421875 12.59375 C 1.617188 12.59375 0.96875 13.242188 0.96875 14.046875 Z M 2.421875 22.28125 C 1.617188 22.28125 0.96875 22.929688 0.96875 23.734375 L 0.96875 26.640625 C 0.96875 27.445312 1.617188 28.09375 2.421875 28.09375 L 5.328125 28.09375 C 6.132812 28.09375 6.78125 27.445312 6.78125 26.640625 L 6.78125 23.734375 C 6.78125 22.929688 6.132812 22.28125 5.328125 22.28125 Z M 2.421875 22.28125 "/>
</g>
</svg>
