<?xml version="1.0" encoding="UTF-8"?>
<svg xmlns="http://www.w3.org/2000/svg" xmlns:xlink="http://www.w3.org/1999/xlink" width="31px" height="31px" viewBox="0 0 31 31" version="1.1">
<g id="surface1">
<path style=" stroke:none;fill-rule:nonzero;fill:rgb(0%,0%,0%);fill-opacity:1;" d="M 24.925781 5.074219 C 23.234375 3.597656 20.496094 3.597656 18.808594 5.074219 L 6.074219 16.214844 C 3.164062 18.761719 3.164062 22.894531 6.074219 25.441406 C 8.988281 27.992188 13.707031 27.992188 16.621094 25.441406 L 27.140625 16.238281 C 27.894531 15.578125 29.125 15.578125 29.878906 16.238281 C 30.632812 16.898438 30.632812 17.976562 29.878906 18.636719 L 19.359375 27.839844 C 14.933594 31.714844 7.765625 31.714844 3.335938 27.839844 C -1.09375 23.964844 -1.09375 17.691406 3.335938 13.816406 L 16.066406 2.675781 C 19.269531 -0.128906 24.460938 -0.128906 27.664062 2.675781 C 30.867188 5.480469 30.867188 10.019531 27.664062 12.824219 L 15.484375 23.480469 C 13.507812 25.210938 10.296875 25.210938 8.316406 23.480469 C 6.339844 21.75 6.339844 18.9375 8.316406 17.207031 L 18.28125 8.488281 C 19.035156 7.828125 20.269531 7.828125 21.023438 8.488281 C 21.777344 9.148438 21.777344 10.226562 21.023438 10.886719 L 11.058594 19.605469 C 10.59375 20.011719 10.59375 20.675781 11.058594 21.082031 C 11.519531 21.488281 12.28125 21.488281 12.746094 21.082031 L 24.925781 10.425781 C 26.613281 8.949219 26.613281 6.550781 24.925781 5.074219 Z M 24.925781 5.074219 "/>
</g>
</svg>
