<?xml version="1.0" encoding="UTF-8"?>
<svg xmlns="http://www.w3.org/2000/svg" xmlns:xlink="http://www.w3.org/1999/xlink" width="31px" height="31px" viewBox="0 0 31 31" version="1.1">
<g id="surface1">
<path style=" stroke:none;fill-rule:nonzero;fill:rgb(25.098039%,86.27451%,100%);fill-opacity:1;" d="M 16.605469 4.84375 C 16.605469 3.773438 15.617188 2.90625 14.394531 2.90625 C 13.167969 2.90625 12.179688 3.773438 12.179688 4.84375 L 12.179688 13.5625 L 2.214844 13.5625 C 0.988281 13.5625 0 14.429688 0 15.5 C 0 16.570312 0.988281 17.4375 2.214844 17.4375 L 12.179688 17.4375 L 12.179688 26.15625 C 12.179688 27.226562 13.167969 28.09375 14.394531 28.09375 C 15.617188 28.09375 16.605469 27.226562 16.605469 26.15625 L 16.605469 17.4375 L 26.570312 17.4375 C 27.796875 17.4375 28.785156 16.570312 28.785156 15.5 C 28.785156 14.429688 27.796875 13.5625 26.570312 13.5625 L 16.605469 13.5625 Z M 16.605469 4.84375 "/>
</g>
</svg>
