<?xml version="1.0" encoding="UTF-8"?>
<svg xmlns="http://www.w3.org/2000/svg" xmlns:xlink="http://www.w3.org/1999/xlink" width="31px" height="31px" viewBox="0 0 31 31" version="1.1">
<g id="surface1">
<path style=" stroke:none;fill-rule:nonzero;fill:rgb(0%,0%,0%);fill-opacity:1;" d="M 0 13.5625 C 0 14.632812 0.867188 15.5 1.9375 15.5 C 3.007812 15.5 3.875 14.632812 3.875 13.5625 C 3.875 10.351562 6.476562 7.75 9.6875 7.75 L 19.375 7.75 L 19.375 9.6875 C 19.375 10.46875 19.847656 11.175781 20.574219 11.480469 C 21.300781 11.78125 22.128906 11.613281 22.6875 11.0625 L 26.5625 7.1875 C 27.320312 6.429688 27.320312 5.199219 26.5625 4.445312 L 22.6875 0.570312 C 22.128906 0.0117188 21.300781 -0.152344 20.574219 0.152344 C 19.847656 0.453125 19.375 1.15625 19.375 1.9375 L 19.375 3.875 L 9.6875 3.875 C 4.335938 3.875 0 8.210938 0 13.5625 Z M 31 17.4375 C 31 16.367188 30.132812 15.5 29.0625 15.5 C 27.992188 15.5 27.125 16.367188 27.125 17.4375 C 27.125 20.648438 24.523438 23.25 21.3125 23.25 L 11.625 23.25 L 11.625 21.3125 C 11.625 20.53125 11.152344 19.824219 10.425781 19.519531 C 9.699219 19.21875 8.871094 19.386719 8.3125 19.9375 L 4.4375 23.8125 C 3.679688 24.570312 3.679688 25.800781 4.4375 26.554688 L 8.3125 30.429688 C 8.871094 30.988281 9.699219 31.152344 10.425781 30.847656 C 11.152344 30.546875 11.625 29.84375 11.625 29.054688 L 11.625 27.125 L 21.3125 27.125 C 26.664062 27.125 31 22.789062 31 17.4375 Z M 31 17.4375 "/>
</g>
</svg>
