<?xml version="1.0" encoding="UTF-8"?>
<svg xmlns="http://www.w3.org/2000/svg" xmlns:xlink="http://www.w3.org/1999/xlink" width="31px" height="31px" viewBox="0 0 31 31" version="1.1">
<g id="surface1">
<path style=" stroke:none;fill-rule:nonzero;fill:rgb(0%,0%,0%);fill-opacity:1;" d="M 21.527344 15.464844 L 21.527344 12.59375 C 21.527344 12.0625 21.140625 11.625 20.667969 11.625 L 15.582031 11.625 C 12.839844 11.625 10.527344 13.652344 9.753906 16.445312 C 9.574219 15.875 9.472656 15.246094 9.472656 14.53125 C 9.472656 10.785156 12.167969 7.75 15.5 7.75 L 20.667969 7.75 C 21.140625 7.75 21.527344 7.3125 21.527344 6.78125 L 21.527344 3.910156 L 27.234375 9.6875 Z M 18.082031 14.53125 L 18.945312 14.53125 L 18.945312 17.4375 C 18.945312 18.507812 19.714844 19.375 20.667969 19.375 L 20.867188 19.375 C 21.289062 19.375 21.699219 19.199219 22.015625 18.878906 L 29.5 11.304688 C 29.90625 10.890625 30.140625 10.304688 30.140625 9.6875 C 30.140625 9.070312 29.90625 8.484375 29.5 8.070312 L 22.0625 0.539062 C 21.714844 0.195312 21.273438 0 20.8125 0 C 19.777344 0 18.945312 0.9375 18.945312 2.101562 L 18.945312 4.84375 L 15.5 4.84375 C 10.742188 4.84375 6.890625 9.179688 6.890625 14.53125 C 6.890625 18.1875 8.75 20.53125 10.328125 21.851562 C 10.644531 22.117188 10.945312 22.34375 11.226562 22.53125 C 11.464844 22.691406 11.683594 22.824219 11.867188 22.929688 C 12.050781 23.03125 12.199219 23.109375 12.308594 23.164062 C 12.425781 23.226562 12.554688 23.25 12.691406 23.25 L 12.824219 23.25 C 13.351562 23.25 13.78125 22.765625 13.78125 22.171875 C 13.78125 21.699219 13.496094 21.28125 13.160156 20.992188 C 13.136719 20.972656 13.121094 20.960938 13.101562 20.941406 C 13.007812 20.875 12.917969 20.792969 12.832031 20.695312 C 12.789062 20.644531 12.738281 20.597656 12.695312 20.539062 C 12.652344 20.476562 12.609375 20.421875 12.566406 20.363281 C 12.46875 20.210938 12.378906 20.039062 12.296875 19.847656 C 12.15625 19.484375 12.066406 19.042969 12.066406 18.492188 C 12.066406 16.304688 13.644531 14.523438 15.589844 14.523438 L 18.082031 14.523438 Z M 3.875 1.9375 C 1.734375 1.9375 0 3.886719 0 6.296875 L 0 26.640625 C 0 29.050781 1.734375 31 3.875 31 L 21.957031 31 C 24.101562 31 25.832031 29.050781 25.832031 26.640625 L 25.832031 22.765625 C 25.832031 21.960938 25.257812 21.3125 24.542969 21.3125 C 23.824219 21.3125 23.25 21.960938 23.25 22.765625 L 23.25 26.640625 C 23.25 27.445312 22.675781 28.09375 21.957031 28.09375 L 3.875 28.09375 C 3.160156 28.09375 2.582031 27.445312 2.582031 26.640625 L 2.582031 6.296875 C 2.582031 5.492188 3.160156 4.84375 3.875 4.84375 L 7.320312 4.84375 C 8.035156 4.84375 8.609375 4.195312 8.609375 3.390625 C 8.609375 2.585938 8.035156 1.9375 7.320312 1.9375 Z M 3.875 1.9375 "/>
</g>
</svg>
