<?xml version="1.0" encoding="UTF-8"?>
<svg xmlns="http://www.w3.org/2000/svg" xmlns:xlink="http://www.w3.org/1999/xlink" width="31px" height="31px" viewBox="0 0 31 31" version="1.1">
<g id="surface1">
<path style=" stroke:none;fill-rule:nonzero;fill:rgb(0%,0%,0%);fill-opacity:1;" d="M 10.257812 0 C 10.636719 0 10.953125 0.34375 11.066406 0.800781 C 11.664062 3.140625 13.421875 4.84375 15.5 4.84375 C 17.578125 4.84375 19.335938 3.140625 19.933594 0.800781 C 20.046875 0.34375 20.363281 0 20.742188 0 L 21.351562 0 C 22.441406 0 23.492188 0.476562 24.332031 1.351562 L 30.441406 7.714844 C 30.761719 8.046875 30.960938 8.53125 30.996094 9.050781 C 31.027344 9.574219 30.894531 10.085938 30.617188 10.480469 L 27.90625 14.355469 C 27.351562 15.148438 26.394531 15.238281 25.746094 14.566406 L 23.25 11.96875 L 23.25 27.125 C 23.25 29.261719 21.859375 31 20.148438 31 L 10.851562 31 C 9.140625 31 7.75 29.261719 7.75 27.125 L 7.75 11.96875 L 5.253906 14.566406 C 4.609375 15.238281 3.652344 15.148438 3.09375 14.355469 L 0.382812 10.480469 C 0.105469 10.085938 -0.0273438 9.574219 0.00390625 9.050781 C 0.0390625 8.53125 0.238281 8.046875 0.558594 7.714844 L 6.667969 1.351562 C 7.507812 0.476562 8.558594 0 9.648438 0 Z M 10.257812 0 "/>
</g>
</svg>
