<?xml version="1.0" encoding="UTF-8"?>
<svg xmlns="http://www.w3.org/2000/svg" xmlns:xlink="http://www.w3.org/1999/xlink" width="31px" height="31px" viewBox="0 0 31 31" version="1.1">
<g id="surface1">
<path style=" stroke:none;fill-rule:nonzero;fill:rgb(100%,100%,100%);fill-opacity:1;" d="M 17.054688 1.089844 C 16.769531 0.421875 16.167969 0 15.503906 0 C 14.84375 0 14.246094 0.421875 13.957031 1.089844 L 10.496094 9.101562 L 2.765625 10.382812 C 2.121094 10.492188 1.582031 11 1.382812 11.699219 C 1.183594 12.394531 1.34375 13.164062 1.808594 13.675781 L 7.417969 19.921875 L 6.09375 28.742188 C 5.984375 29.46875 6.253906 30.207031 6.785156 30.636719 C 7.320312 31.066406 8.023438 31.121094 8.605469 30.777344 L 15.511719 26.628906 L 22.414062 30.777344 C 22.996094 31.121094 23.703125 31.074219 24.234375 30.636719 C 24.769531 30.199219 25.035156 29.46875 24.929688 28.742188 L 23.601562 19.921875 L 29.207031 13.675781 C 29.671875 13.164062 29.835938 12.394531 29.632812 11.699219 C 29.429688 11 28.894531 10.492188 28.25 10.382812 L 20.515625 9.101562 Z M 17.054688 1.089844 "/>
</g>
</svg>
