<?xml version="1.0" encoding="UTF-8"?>
<svg xmlns="http://www.w3.org/2000/svg" xmlns:xlink="http://www.w3.org/1999/xlink" width="31px" height="31px" viewBox="0 0 31 31" version="1.1">
<g id="surface1">
<path style=" stroke:none;fill-rule:nonzero;fill:rgb(23.137255%,81.960784%,100%);fill-opacity:1;" d="M 15.496094 0 C 15.988281 0 16.441406 0.316406 16.65625 0.820312 L 20.347656 9.371094 L 28.601562 10.746094 C 29.085938 10.824219 29.480469 11.207031 29.636719 11.726562 C 29.789062 12.253906 29.664062 12.828125 29.320312 13.210938 L 23.335938 19.882812 L 24.75 29.296875 C 24.832031 29.84375 24.632812 30.402344 24.230469 30.722656 C 23.832031 31.042969 23.253906 31.085938 22.867188 30.824219 L 15.496094 26.390625 L 8.078125 30.824219 C 7.691406 31.085938 7.164062 31.042969 6.757812 30.722656 C 6.363281 30.402344 6.164062 29.84375 6.195312 29.296875 L 7.652344 19.882812 L 1.675781 13.210938 C 1.328125 12.828125 1.203125 12.253906 1.355469 11.726562 C 1.507812 11.207031 1.910156 10.824219 2.394531 10.746094 L 10.640625 9.371094 L 14.332031 0.820312 C 14.554688 0.316406 15 0 15.496094 0 Z M 15.496094 4.78125 L 12.667969 11.335938 C 12.480469 11.765625 12.113281 12.066406 11.695312 12.140625 L 5.328125 13.191406 L 9.953125 18.34375 C 10.246094 18.679688 10.382812 19.15625 10.3125 19.625 L 9.226562 26.863281 L 14.886719 23.460938 C 15.269531 23.230469 15.726562 23.230469 16.101562 23.460938 L 21.765625 26.863281 L 20.675781 19.625 C 20.609375 19.15625 20.746094 18.679688 21.042969 18.34375 L 25.667969 13.191406 L 19.300781 12.140625 C 18.875 12.066406 18.507812 11.765625 18.324219 11.335938 Z M 15.496094 4.78125 "/>
</g>
</svg>
