<?xml version="1.0" encoding="UTF-8"?>
<svg xmlns="http://www.w3.org/2000/svg" xmlns:xlink="http://www.w3.org/1999/xlink" width="31px" height="31px" viewBox="0 0 31 31" version="1.1">
<g id="surface1">
<path style=" stroke:none;fill-rule:nonzero;fill:rgb(36.862745%,87.058824%,100%);fill-opacity:1;" d="M 11.796875 3.125 L 10.484375 4.84375 L 20.515625 4.84375 L 19.203125 3.125 C 19.097656 2.992188 18.925781 2.90625 18.738281 2.90625 L 12.253906 2.90625 C 12.066406 2.90625 11.894531 2.984375 11.792969 3.125 Z M 21.96875 1.515625 L 24.507812 4.84375 L 29.339844 4.84375 C 30.257812 4.84375 31 5.492188 31 6.296875 C 31 7.101562 30.257812 7.75 29.339844 7.75 L 28.785156 7.75 L 28.785156 26.15625 C 28.785156 28.832031 26.308594 31 23.25 31 L 7.75 31 C 4.691406 31 2.214844 28.832031 2.214844 26.15625 L 2.214844 7.75 L 1.660156 7.75 C 0.742188 7.75 0 7.101562 0 6.296875 C 0 5.492188 0.742188 4.84375 1.660156 4.84375 L 6.492188 4.84375 L 9.03125 1.507812 C 9.75 0.570312 10.960938 0 12.253906 0 L 18.738281 0 C 20.03125 0 21.242188 0.570312 21.964844 1.507812 Z M 5.535156 7.75 L 5.535156 26.15625 C 5.535156 27.226562 6.523438 28.09375 7.75 28.09375 L 23.25 28.09375 C 24.476562 28.09375 25.464844 27.226562 25.464844 26.15625 L 25.464844 7.75 Z M 11.070312 11.625 L 11.070312 24.21875 C 11.070312 24.75 10.574219 25.1875 9.964844 25.1875 C 9.355469 25.1875 8.855469 24.75 8.855469 24.21875 L 8.855469 11.625 C 8.855469 11.09375 9.355469 10.65625 9.964844 10.65625 C 10.574219 10.65625 11.070312 11.09375 11.070312 11.625 Z M 16.605469 11.625 L 16.605469 24.21875 C 16.605469 24.75 16.109375 25.1875 15.5 25.1875 C 14.890625 25.1875 14.394531 24.75 14.394531 24.21875 L 14.394531 11.625 C 14.394531 11.09375 14.890625 10.65625 15.5 10.65625 C 16.109375 10.65625 16.605469 11.09375 16.605469 11.625 Z M 22.144531 11.625 L 22.144531 24.21875 C 22.144531 24.75 21.644531 25.1875 21.035156 25.1875 C 20.425781 25.1875 19.929688 24.75 19.929688 24.21875 L 19.929688 11.625 C 19.929688 11.09375 20.425781 10.65625 21.035156 10.65625 C 21.644531 10.65625 22.144531 11.09375 22.144531 11.625 Z M 22.144531 11.625 "/>
</g>
</svg>
