<?xml version="1.0" encoding="UTF-8"?>
<svg xmlns="http://www.w3.org/2000/svg" xmlns:xlink="http://www.w3.org/1999/xlink" width="31px" height="31px" viewBox="0 0 31 31" version="1.1">
<g id="surface1">
<path style=" stroke:none;fill-rule:nonzero;fill:rgb(31.764706%,16.862745%,83.137255%);fill-opacity:1;" d="M 3.445312 4.84375 C 2.972656 4.84375 2.582031 5.28125 2.582031 5.8125 L 2.582031 25.1875 C 2.582031 25.71875 2.972656 26.15625 3.445312 26.15625 L 27.554688 26.15625 C 28.027344 26.15625 28.417969 25.71875 28.417969 25.1875 L 28.417969 5.8125 C 28.417969 5.28125 28.027344 4.84375 27.554688 4.84375 Z M 0 5.8125 C 0 3.675781 1.542969 1.9375 3.445312 1.9375 L 27.554688 1.9375 C 29.457031 1.9375 31 3.675781 31 5.8125 L 31 25.1875 C 31 27.324219 29.457031 29.0625 27.554688 29.0625 L 3.445312 29.0625 C 1.542969 29.0625 0 27.324219 0 25.1875 Z M 5.167969 9.6875 C 5.167969 8.617188 5.9375 7.75 6.890625 7.75 C 7.839844 7.75 8.609375 8.617188 8.609375 9.6875 C 8.609375 10.757812 7.839844 11.625 6.890625 11.625 C 5.9375 11.625 5.167969 10.757812 5.167969 9.6875 Z M 10.765625 9.6875 C 10.765625 8.882812 11.339844 8.234375 12.054688 8.234375 L 24.109375 8.234375 C 24.828125 8.234375 25.402344 8.882812 25.402344 9.6875 C 25.402344 10.492188 24.828125 11.140625 24.109375 11.140625 L 12.054688 11.140625 C 11.339844 11.140625 10.765625 10.492188 10.765625 9.6875 Z M 10.765625 15.5 C 10.765625 14.695312 11.339844 14.046875 12.054688 14.046875 L 24.109375 14.046875 C 24.828125 14.046875 25.402344 14.695312 25.402344 15.5 C 25.402344 16.304688 24.828125 16.953125 24.109375 16.953125 L 12.054688 16.953125 C 11.339844 16.953125 10.765625 16.304688 10.765625 15.5 Z M 10.765625 21.3125 C 10.765625 20.507812 11.339844 19.859375 12.054688 19.859375 L 24.109375 19.859375 C 24.828125 19.859375 25.402344 20.507812 25.402344 21.3125 C 25.402344 22.117188 24.828125 22.765625 24.109375 22.765625 L 12.054688 22.765625 C 11.339844 22.765625 10.765625 22.117188 10.765625 21.3125 Z M 6.890625 17.4375 C 5.9375 17.4375 5.167969 16.570312 5.167969 15.5 C 5.167969 14.429688 5.9375 13.5625 6.890625 13.5625 C 7.839844 13.5625 8.609375 14.429688 8.609375 15.5 C 8.609375 16.570312 7.839844 17.4375 6.890625 17.4375 Z M 5.167969 21.3125 C 5.167969 20.242188 5.9375 19.375 6.890625 19.375 C 7.839844 19.375 8.609375 20.242188 8.609375 21.3125 C 8.609375 22.382812 7.839844 23.25 6.890625 23.25 C 5.9375 23.25 5.167969 22.382812 5.167969 21.3125 Z M 5.167969 21.3125 "/>
</g>
</svg>
